<svg width="41" height="40" viewBox="0 0 41 40" fill="none" xmlns="http://www.w3.org/2000/svg">
<path d="M20.5 9.58335C20.5 6.25002 23 2.91669 26.3333 2.91669C26.3333 6.25002 23.8333 9.58335 20.5 9.58335Z" stroke="#C79828" stroke-width="2" stroke-linejoin="round"/>
<path d="M21.3332 13.4833C20.475 13.4833 19.811 13.2107 19.0688 12.9061C18.1292 12.5204 17.0644 12.0833 15.3221 12.0833C12.2038 12.0833 7.1665 14.5824 7.1665 21.2491C7.1665 29.0026 12.341 37.0833 15.6744 37.0833C16.7903 37.0833 17.7957 36.6451 18.7565 36.2265C19.6357 35.8431 20.4778 35.4761 21.3332 35.4761C22.1885 35.4761 23.0307 35.8431 23.9098 36.2265C24.8707 36.6451 25.876 37.0833 26.992 37.0833C29.313 37.0833 32.0953 33.1653 33.8332 28.168C31.132 27.0336 29.3965 24.3633 29.3965 21.25C29.3965 18.535 30.8392 16.733 32.9998 15.4166C31.3332 12.9166 28.8555 12.0833 27.0743 12.0833C25.332 12.0833 24.2672 12.5204 23.3275 12.9061C22.5855 13.2107 22.1913 13.4833 21.3332 13.4833Z" stroke="#C79828" stroke-width="2" stroke-linejoin="round"/>
</svg>
