<svg width="41" height="40" viewBox="0 0 41 40" fill="none" xmlns="http://www.w3.org/2000/svg">
<path d="M32.9998 29.1667C32.9998 31.4678 31.1343 33.3333 28.8332 33.3333C26.532 33.3333 24.6665 31.4678 24.6665 29.1667C24.6665 26.8655 26.532 25 28.8332 25C31.1343 25 32.9998 26.8655 32.9998 29.1667Z" stroke="#C79828" stroke-width="2"/>
<path d="M16.3333 29.1667C16.3333 31.4678 14.4678 33.3333 12.1667 33.3333C9.86548 33.3333 8 31.4678 8 29.1667C8 26.8655 9.86548 25 12.1667 25C14.4678 25 16.3333 26.8655 16.3333 29.1667Z" stroke="#C79828" stroke-width="2"/>
<path d="M24.6668 29.1667H16.3335M3.8335 6.66669H20.5002C22.8572 6.66669 24.0357 6.66669 24.768 7.39892C25.5002 8.13115 25.5002 9.30967 25.5002 11.6667V25.8334M26.3335 10.8334H29.3358C30.7187 10.8334 31.41 10.8334 31.9832 11.1579C32.5562 11.4824 32.912 12.0752 33.6233 13.2609L36.4543 17.9792C36.8083 18.5692 36.9853 18.8644 37.0762 19.1919C37.1668 19.5194 37.1668 19.8634 37.1668 20.5517V25C37.1668 26.5577 37.1668 27.3365 36.8318 27.9167C36.6125 28.2967 36.2968 28.6124 35.9168 28.8317C35.3367 29.1667 34.5578 29.1667 33.0002 29.1667M3.8335 21.6667V25C3.8335 26.5577 3.8335 27.3365 4.16843 27.9167C4.38785 28.2967 4.70345 28.6124 5.0835 28.8317C5.66363 29.1667 6.44246 29.1667 8.00016 29.1667" stroke="#C79828" stroke-width="2" stroke-linecap="round" stroke-linejoin="round"/>
<path d="M3.8335 11.6667H13.8335M3.8335 16.6667H10.5002" stroke="#C79828" stroke-width="2" stroke-linecap="round" stroke-linejoin="round"/>
</svg>
