<svg width="20" height="20" viewBox="0 0 20 20" fill="none" xmlns="http://www.w3.org/2000/svg">
<path d="M12.553 12.4216C12.5044 12.4216 12.4554 12.4134 12.4078 12.3963C12.2372 12.335 12.1234 12.1732 12.1234 11.992V8.77496L4.05086 4.11492C3.84535 3.99625 3.77492 3.73348 3.89356 3.52797C4.01219 3.32246 4.27492 3.25207 4.48051 3.37066L12.768 8.15472C12.9009 8.23148 12.9829 8.37336 12.9829 8.52687V10.796L13.8909 9.69551C13.9934 9.57121 14.1568 9.5148 14.3143 9.54922L15.1226 9.72637V7.04347L7.04512 2.38285C6.83957 2.26426 6.7691 2.00148 6.8877 1.79594C7.00629 1.59039 7.26907 1.51992 7.47461 1.63851L15.767 6.42312C15.9 6.49988 15.9819 6.64176 15.9819 6.79531V10.2604C15.9819 10.3905 15.9229 10.5136 15.8216 10.5952C15.7202 10.6768 15.5873 10.708 15.4602 10.6802L14.3866 10.4449L12.8846 12.2654C12.8013 12.3662 12.6789 12.4216 12.553 12.4216Z" fill="#B77E2B"/>
<path d="M18.6882 5.05605C18.6869 5.05304 18.6859 5.04995 18.6846 5.04698C18.6823 5.04167 18.6794 5.03651 18.6769 5.03124C18.6401 4.95362 18.5811 4.88706 18.5041 4.84265L10.2159 0.0575684C10.083 -0.0191895 9.91918 -0.0191895 9.78625 0.0575684L1.55855 4.8078C1.46902 4.84163 1.39015 4.9053 1.33859 4.9946C1.29203 5.07519 1.27496 5.16452 1.28328 5.25058V14.7851C1.28328 14.9387 1.36519 15.0805 1.49812 15.1573L9.78629 19.9424C9.91925 20.0192 10.083 20.0192 10.216 19.9424L18.5041 15.1573C18.6371 15.0805 18.719 14.9386 18.719 14.7851V5.26042C18.7254 5.1923 18.7157 5.12226 18.6882 5.05605ZM10.0011 0.92585L17.4352 5.21792L10.0014 9.50382L2.57543 5.21304L10.0011 0.92585ZM2.14261 5.95546L9.5714 10.2479V18.8261L2.14261 14.5371V5.95546ZM10.4308 18.8261V10.2482L17.8596 5.96523V14.5371L10.4308 18.8261Z" fill="#353535"/>
<path d="M5.00194 15.1685C4.92905 15.1685 4.85519 15.1499 4.78749 15.1108L3.01179 14.0856C2.80628 13.967 2.73585 13.7042 2.85452 13.4987C2.97319 13.2932 3.23601 13.2228 3.44148 13.3414L5.21718 14.3666C5.42269 14.4853 5.49312 14.7481 5.37444 14.9536C5.29487 15.0914 5.15046 15.1685 5.00194 15.1685Z" fill="#B77E2B"/>
<path d="M4.20276 12.9564C4.12987 12.9564 4.05601 12.9378 3.98831 12.8987L3.01179 12.3349C2.80628 12.2163 2.73585 11.9535 2.85452 11.748C2.97319 11.5425 3.23601 11.4721 3.44148 11.5907L4.418 12.1545C4.62351 12.2732 4.69394 12.5359 4.57526 12.7415C4.49569 12.8793 4.35124 12.9564 4.20276 12.9564Z" fill="#B77E2B"/>
</svg>
