<svg width="24" height="25" viewBox="0 0 24 25" fill="none" xmlns="http://www.w3.org/2000/svg">
<path d="M5.18007 15.7964C3.92249 16.5335 0.625212 18.0386 2.63348 19.922C3.6145 20.842 4.7071 21.5 6.08077 21.5H13.9192C15.2929 21.5 16.3855 20.842 17.3665 19.922C19.3748 18.0386 16.0775 16.5335 14.8199 15.7964C11.8709 14.0679 8.12906 14.0679 5.18007 15.7964Z" stroke="black" stroke-width="1.5" stroke-linecap="round" stroke-linejoin="round"/>
<path d="M14 7.5C14 9.70914 12.2091 11.5 10 11.5C7.79086 11.5 6 9.70914 6 7.5C6 5.29086 7.79086 3.5 10 3.5C12.2091 3.5 14 5.29086 14 7.5Z" stroke="black" stroke-width="1.5"/>
<path d="M19.6221 5.06564C19.8457 4.82342 19.9574 4.70232 20.0762 4.63168C20.3628 4.46123 20.7157 4.45593 21.0071 4.6177C21.1279 4.68474 21.2431 4.80244 21.4735 5.03783C21.7039 5.27322 21.8192 5.39092 21.8848 5.51428C22.0431 5.81194 22.038 6.17244 21.8711 6.46521C21.8019 6.58655 21.6834 6.70073 21.4463 6.9291L18.6252 9.64629C18.1759 10.0791 17.9512 10.2954 17.6704 10.4051C17.3896 10.5148 17.081 10.5067 16.4636 10.4906L16.3796 10.4884C16.1917 10.4835 16.0977 10.481 16.0431 10.419C15.9885 10.357 15.9959 10.2613 16.0108 10.0698L16.0189 9.9659C16.0609 9.42706 16.0819 9.15765 16.1871 8.91547C16.2923 8.67328 16.4738 8.47664 16.8368 8.08335L19.6221 5.06564Z" stroke="black" stroke-width="1.5" stroke-linejoin="round"/>
</svg>
