<svg width="41" height="40" viewBox="0 0 41 40" fill="none" xmlns="http://www.w3.org/2000/svg">
<path d="M3.8335 16.6667C3.8335 11.9526 3.8335 9.59562 5.29796 8.13115C6.76243 6.66669 9.11945 6.66669 13.8335 6.66669H27.1668C31.8808 6.66669 34.2378 6.66669 35.7023 8.13115C37.1668 9.59562 37.1668 11.9526 37.1668 16.6667V23.3334C37.1668 28.0474 37.1668 30.4044 35.7023 31.8689C34.2378 33.3334 31.8808 33.3334 27.1668 33.3334H13.8335C9.11945 33.3334 6.76243 33.3334 5.29796 31.8689C3.8335 30.4044 3.8335 28.0474 3.8335 23.3334V16.6667Z" stroke="#C79828" stroke-width="2" stroke-linecap="round" stroke-linejoin="round"/>
<path d="M10.5 16.5071C10.5 8.93311 20.5 16.6502 20.5 21.6666H14.6667C11.772 21.6666 10.5 19.1165 10.5 16.5071Z" stroke="#C79828" stroke-width="2" stroke-linecap="round" stroke-linejoin="round"/>
<path d="M30.5 16.5071C30.5 8.93311 20.5 16.6502 20.5 21.6666H26.3333C29.228 21.6666 30.5 19.1165 30.5 16.5071Z" stroke="#C79828" stroke-width="2" stroke-linecap="round" stroke-linejoin="round"/>
<path d="M20.5 6.66669V33.3334" stroke="#C79828" stroke-width="2" stroke-linecap="round" stroke-linejoin="round"/>
<path d="M3.8335 21.6667H37.1668" stroke="#C79828" stroke-width="2" stroke-linecap="round" stroke-linejoin="round"/>
<path d="M25.5 26.6667L20.5 21.6667L15.5 26.6667" stroke="#C79828" stroke-width="2" stroke-linecap="round" stroke-linejoin="round"/>
</svg>
