<svg width="30" height="30" viewBox="0 0 30 30" fill="none" xmlns="http://www.w3.org/2000/svg">
<path d="M23.75 21.25V13.75C23.75 10.2145 23.75 8.4467 22.6516 7.34835C21.5532 6.25 19.7855 6.25 16.25 6.25H12.5M12.5 6.25C12.5 5.37471 14.9929 3.73941 15.625 3.125M12.5 6.25C12.5 7.12529 14.9929 8.76059 15.625 9.375" stroke="black" stroke-width="1.875" stroke-linecap="round" stroke-linejoin="round"/>
<path d="M6.25 9.375V16.875C6.25 20.4105 6.25 22.1782 7.34835 23.2766C8.4467 24.375 10.2145 24.375 13.75 24.375H17.5M17.5 24.375C17.5 25.2503 15.0071 26.8856 14.375 27.5M17.5 24.375C17.5 23.4997 15.0071 21.8644 14.375 21.25" stroke="black" stroke-width="1.875" stroke-linecap="round" stroke-linejoin="round"/>
<path d="M23.75 26.25C25.1307 26.25 26.25 25.1307 26.25 23.75C26.25 22.3693 25.1307 21.25 23.75 21.25C22.3693 21.25 21.25 22.3693 21.25 23.75C21.25 25.1307 22.3693 26.25 23.75 26.25Z" stroke="black" stroke-width="1.875"/>
<path d="M6.25 8.75C7.63071 8.75 8.75 7.63071 8.75 6.25C8.75 4.86929 7.63071 3.75 6.25 3.75C4.86929 3.75 3.75 4.86929 3.75 6.25C3.75 7.63071 4.86929 8.75 6.25 8.75Z" stroke="black" stroke-width="1.875"/>
</svg>
