<svg width="35" height="35" viewBox="0 0 35 35" fill="none" xmlns="http://www.w3.org/2000/svg">
<g id="git-compare">
<path id="Vector" d="M27.708 24.7916V16.0416C27.708 11.9169 27.708 9.85446 26.4266 8.57306C25.1451 7.29165 23.0828 7.29165 18.958 7.29165H14.583M14.583 7.29165C14.583 6.27048 17.4914 4.36263 18.2288 3.64581M14.583 7.29165C14.583 8.31282 17.4914 10.2207 18.2288 10.9375" stroke="#141B34" stroke-width="1.5" stroke-linecap="round" stroke-linejoin="round"/>
<path id="Vector_2" d="M7.29199 10.9375V19.6875C7.29199 23.8123 7.29199 25.8746 8.5734 27.1561C9.85481 28.4375 11.9172 28.4375 16.042 28.4375H20.417M20.417 28.4375C20.417 29.4586 17.5086 31.3666 16.7712 32.0833M20.417 28.4375C20.417 27.4164 17.5086 25.5084 16.7712 24.7917" stroke="#141B34" stroke-width="1.5" stroke-linecap="round" stroke-linejoin="round"/>
<path id="Vector_3" d="M27.7087 30.625C29.3195 30.625 30.6253 29.3192 30.6253 27.7084C30.6253 26.0975 29.3195 24.7917 27.7087 24.7917C26.0978 24.7917 24.792 26.0975 24.792 27.7084C24.792 29.3192 26.0978 30.625 27.7087 30.625Z" stroke="#141B34" stroke-width="1.5"/>
<path id="Vector_4" d="M7.29167 10.2083C8.9025 10.2083 10.2083 8.9025 10.2083 7.29167C10.2083 5.68084 8.9025 4.375 7.29167 4.375C5.68084 4.375 4.375 5.68084 4.375 7.29167C4.375 8.9025 5.68084 10.2083 7.29167 10.2083Z" stroke="#141B34" stroke-width="1.5"/>
</g>
</svg>
