<svg width="30" height="30" viewBox="0 0 30 30" fill="none" xmlns="http://www.w3.org/2000/svg">
<path d="M2.5 15C2.5 10.5781 2.5 8.36721 3.816 6.89112C4.02649 6.65504 4.25848 6.43669 4.50933 6.23859C6.07766 5 8.42678 5 13.125 5H16.875C21.5732 5 23.9224 5 25.4906 6.23859C25.7415 6.43669 25.9735 6.65504 26.184 6.89112C27.5 8.36721 27.5 10.5781 27.5 15C27.5 19.4219 27.5 21.6328 26.184 23.1089C25.9735 23.345 25.7415 23.5632 25.4906 23.7614C23.9224 25 21.5732 25 16.875 25H13.125C8.42678 25 6.07766 25 4.50933 23.7614C4.25848 23.5632 4.02649 23.345 3.816 23.1089C2.5 21.6328 2.5 19.4219 2.5 15Z" stroke="black" stroke-width="1.875" stroke-linecap="round" stroke-linejoin="round"/>
<path d="M16.2499 15C16.2499 17.0711 14.5711 18.75 12.4999 18.75C10.4289 18.75 8.75 17.0711 8.75 15C8.75 12.9289 10.4289 11.25 12.4999 11.25C14.5711 11.25 16.2499 12.9289 16.2499 15Z" stroke="black" stroke-width="1.875"/>
<path d="M15 12.2049C15.6635 11.6111 16.5395 11.25 17.5 11.25C19.5711 11.25 21.25 12.9289 21.25 15C21.25 17.0711 19.5711 18.75 17.5 18.75C16.5395 18.75 15.6635 18.3889 15 17.7951" stroke="black" stroke-width="1.875"/>
</svg>
