<svg width="12" height="14" viewBox="0 0 12 14" fill="none" xmlns="http://www.w3.org/2000/svg">
<path fill-rule="evenodd" clip-rule="evenodd" d="M4.16735 -2.78163e-08C4.5188 -1.24538e-08 4.80371 0.28491 4.80371 0.636364L4.80371 5.72727C4.80371 6.07873 4.5188 6.36364 4.16735 6.36364C3.81589 6.36364 3.53098 6.07873 3.53098 5.72727L3.53098 0.636364C3.53098 0.28491 3.81589 -4.31789e-08 4.16735 -2.78163e-08Z" fill="black"/>
<path fill-rule="evenodd" clip-rule="evenodd" d="M4.37913 2.54532H0.773082C0.421628 2.54532 0.136719 2.83023 0.136719 3.18168C0.136719 3.53314 0.421628 3.81805 0.773082 3.81805H4.37913V2.54532ZM6.0761 3.81805H12.2276C12.5791 3.81805 12.864 3.53314 12.864 3.18168C12.864 2.83023 12.5791 2.54532 12.2276 2.54532H6.0761V3.81805Z" fill="black"/>
<path fill-rule="evenodd" clip-rule="evenodd" d="M8.83363 14.0001C8.48218 14.0001 8.19727 13.7152 8.19727 13.3638L8.19727 8.27285C8.19727 7.9214 8.48218 7.63649 8.83363 7.63649C9.18508 7.63649 9.46999 7.9214 9.46999 8.27285L9.46999 13.3638C9.46999 13.7152 9.18508 14.0001 8.83363 14.0001Z" fill="black"/>
<path fill-rule="evenodd" clip-rule="evenodd" d="M8.62184 11.4548L12.2279 11.4548C12.5793 11.4548 12.8643 11.1699 12.8643 10.8184C12.8643 10.467 12.5793 10.1821 12.2279 10.1821L8.62184 10.1821L8.62184 11.4548ZM6.92487 10.1821L0.773349 10.1821C0.421895 10.1821 0.136985 10.467 0.136985 10.8184C0.136985 11.1699 0.421895 11.4548 0.773349 11.4548L6.92487 11.4548L6.92487 10.1821Z" fill="black"/>
</svg>
