<svg width="30" height="30" viewBox="0 0 30 30" fill="none" xmlns="http://www.w3.org/2000/svg">
<path d="M10 20H19.079C24.6885 20 25.5416 16.476 26.5762 11.3364C26.8747 9.85389 27.024 9.11266 26.6651 8.61884C26.3062 8.125 25.6184 8.125 24.2426 8.125H7.5" stroke="#C79828" stroke-width="1.875" stroke-linecap="round"/>
<path d="M10 20L6.72341 4.39366C6.44519 3.28074 5.44523 2.5 4.29806 2.5H3.125" stroke="#C79828" stroke-width="1.875" stroke-linecap="round"/>
<path d="M11.1 20H10.5857C8.88152 20 7.5 21.4391 7.5 23.2142C7.5 23.5101 7.73025 23.75 8.01429 23.75H21.875" stroke="#C79828" stroke-width="1.875" stroke-linecap="round" stroke-linejoin="round"/>
<path d="M13.125 27.5C14.1605 27.5 15 26.6605 15 25.625C15 24.5895 14.1605 23.75 13.125 23.75C12.0895 23.75 11.25 24.5895 11.25 25.625C11.25 26.6605 12.0895 27.5 13.125 27.5Z" stroke="#C79828" stroke-width="1.875"/>
<path d="M21.875 27.5C22.9105 27.5 23.75 26.6605 23.75 25.625C23.75 24.5895 22.9105 23.75 21.875 23.75C20.8395 23.75 20 24.5895 20 25.625C20 26.6605 20.8395 27.5 21.875 27.5Z" stroke="#C79828" stroke-width="1.875"/>
</svg>
