<svg width="14" height="14" viewBox="0 0 14 14" fill="none" xmlns="http://www.w3.org/2000/svg">
<path d="M4.6665 9.33333L9.75323 8.90943C11.3449 8.77683 11.7021 8.42917 11.8785 6.84186L12.2498 3.5" stroke="#141B34" stroke-width="0.875" stroke-linecap="round"/>
<path d="M3.5 3.5H3.79167M12.8333 3.5H11.375" stroke="#141B34" stroke-width="0.875" stroke-linecap="round"/>
<path d="M5.5415 3.49998H9.62484M7.58317 5.54165V1.45831" stroke="#141B34" stroke-width="0.875" stroke-linecap="round"/>
<path d="M3.50016 12.8333C4.14449 12.8333 4.66683 12.311 4.66683 11.6667C4.66683 11.0223 4.14449 10.5 3.50016 10.5C2.85583 10.5 2.3335 11.0223 2.3335 11.6667C2.3335 12.311 2.85583 12.8333 3.50016 12.8333Z" stroke="#141B34" stroke-width="0.875"/>
<path d="M9.91667 12.8333C10.561 12.8333 11.0833 12.311 11.0833 11.6667C11.0833 11.0223 10.561 10.5 9.91667 10.5C9.27233 10.5 8.75 11.0223 8.75 11.6667C8.75 12.311 9.27233 12.8333 9.91667 12.8333Z" stroke="#141B34" stroke-width="0.875"/>
<path d="M4.6665 11.6667H8.74984" stroke="#141B34" stroke-width="0.875" stroke-linecap="round"/>
<path d="M1.1665 1.16669H1.73C2.28107 1.16669 2.76142 1.53103 2.89507 2.0504L4.63064 8.79465C4.71834 9.13549 4.64329 9.49651 4.42631 9.77762L3.86858 10.5" stroke="#141B34" stroke-width="0.875" stroke-linecap="round"/>
</svg>
