<svg width="20" height="20" viewBox="0 0 20 20" fill="none" xmlns="http://www.w3.org/2000/svg">
<path d="M10.8346 12.2917H1.66797C1.3263 12.2917 1.04297 12.0083 1.04297 11.6667V6.35C1.04297 6.08333 1.20963 5.84998 1.45129 5.75831C1.70129 5.66665 1.97631 5.74167 2.14297 5.94167C2.65131 6.55001 3.44297 6.89166 4.22631 6.86666C4.89297 6.84999 5.50962 6.60002 5.97629 6.15835C6.19295 5.97502 6.36796 5.75833 6.50129 5.51667C6.75962 5.075 6.88464 4.59166 6.8763 4.09999C6.85964 3.33332 6.52632 2.63333 5.95966 2.12499C5.75966 1.94999 5.69297 1.67498 5.78464 1.43331C5.8763 1.19164 6.10965 1.02499 6.36798 1.02499H12.5013C12.843 1.02499 13.1263 1.30832 13.1263 1.64999V9.98332C13.1263 11.2667 12.1013 12.2917 10.8346 12.2917ZM2.29297 11.0417H10.8346C11.4096 11.0417 11.8763 10.575 11.8763 10V2.29167H7.65964C7.9513 2.83334 8.10964 3.44168 8.1263 4.07501C8.14297 4.80001 7.95962 5.51667 7.59296 6.14167C7.39296 6.5 7.11796 6.84168 6.81796 7.09168C6.1513 7.72501 5.23462 8.1 4.25962 8.125C3.55962 8.15 2.88464 7.975 2.30131 7.65834V11.0417H2.29297Z" fill="#12B76A"/>
<path d="M15.8346 17.2917H15.0013C14.6596 17.2917 14.3763 17.0083 14.3763 16.6667C14.3763 16.0917 13.9096 15.625 13.3346 15.625C12.7596 15.625 12.293 16.0917 12.293 16.6667C12.293 17.0083 12.0096 17.2917 11.668 17.2917H8.33464C7.99297 17.2917 7.70964 17.0083 7.70964 16.6667C7.70964 16.0917 7.24297 15.625 6.66797 15.625C6.09297 15.625 5.6263 16.0917 5.6263 16.6667C5.6263 17.0083 5.34297 17.2917 5.0013 17.2917H4.16797C2.44297 17.2917 1.04297 15.8917 1.04297 14.1667V11.6667C1.04297 11.325 1.3263 11.0417 1.66797 11.0417H10.8346C11.4096 11.0417 11.8763 10.575 11.8763 10V4.16666C11.8763 3.825 12.1596 3.54166 12.5013 3.54166H14.0347C14.8597 3.54166 15.618 3.98334 16.0263 4.70001L17.4513 7.19167C17.5596 7.38333 17.5596 7.625 17.4513 7.81667C17.343 8.00833 17.1346 8.125 16.9096 8.125H15.8346C15.718 8.125 15.6263 8.21666 15.6263 8.33333V10.8333C15.6263 10.95 15.718 11.0417 15.8346 11.0417H18.3346C18.6763 11.0417 18.9596 11.325 18.9596 11.6667V14.1667C18.9596 15.8917 17.5596 17.2917 15.8346 17.2917ZM15.543 16.0417H15.8346C16.868 16.0417 17.7096 15.2 17.7096 14.1667V12.2917H15.8346C15.0346 12.2917 14.3763 11.6333 14.3763 10.8333V8.33333C14.3763 7.53333 15.0263 6.875 15.8346 6.875L14.943 5.31667C14.7596 4.99167 14.4097 4.79166 14.0347 4.79166H13.1263V10C13.1263 11.2667 12.1013 12.2917 10.8346 12.2917H2.29297V14.1667C2.29297 15.2 3.13464 16.0417 4.16797 16.0417H4.45962C4.73462 15.0833 5.61797 14.375 6.66797 14.375C7.71797 14.375 8.60132 15.0833 8.87632 16.0417H11.1346C11.4096 15.0833 12.293 14.375 13.343 14.375C14.393 14.375 15.268 15.0833 15.543 16.0417Z" fill="#12B76A"/>
<path d="M6.66667 18.9583C5.4 18.9583 4.375 17.9333 4.375 16.6667C4.375 15.4 5.4 14.375 6.66667 14.375C7.93333 14.375 8.95833 15.4 8.95833 16.6667C8.95833 17.9333 7.93333 18.9583 6.66667 18.9583ZM6.66667 15.625C6.09167 15.625 5.625 16.0917 5.625 16.6667C5.625 17.2417 6.09167 17.7083 6.66667 17.7083C7.24167 17.7083 7.70833 17.2417 7.70833 16.6667C7.70833 16.0917 7.24167 15.625 6.66667 15.625Z" fill="#12B76A"/>
<path d="M13.3346 18.9583C12.068 18.9583 11.043 17.9333 11.043 16.6667C11.043 15.4 12.068 14.375 13.3346 14.375C14.6013 14.375 15.6263 15.4 15.6263 16.6667C15.6263 17.9333 14.6013 18.9583 13.3346 18.9583ZM13.3346 15.625C12.7596 15.625 12.293 16.0917 12.293 16.6667C12.293 17.2417 12.7596 17.7083 13.3346 17.7083C13.9096 17.7083 14.3763 17.2417 14.3763 16.6667C14.3763 16.0917 13.9096 15.625 13.3346 15.625Z" fill="#12B76A"/>
<path d="M18.3333 12.2917H15.8333C15.0333 12.2917 14.375 11.6333 14.375 10.8333V8.33333C14.375 7.53333 15.0333 6.875 15.8333 6.875H16.9083C17.1333 6.875 17.3417 6.99167 17.45 7.19167L18.875 9.69167C18.925 9.78334 18.9583 9.89167 18.9583 10V11.6667C18.9583 12.0083 18.675 12.2917 18.3333 12.2917ZM15.8333 8.125C15.7167 8.125 15.625 8.21667 15.625 8.33333V10.8333C15.625 10.95 15.7167 11.0417 15.8333 11.0417H17.7083V10.1667L16.5416 8.125H15.8333Z" fill="#12B76A"/>
<path d="M4.15801 8.125C3.00801 8.125 1.92468 7.62498 1.19135 6.74998C1.07468 6.62498 0.949696 6.44998 0.841363 6.28332C0.449696 5.69165 0.233029 4.99166 0.216363 4.25832C0.183029 3.04166 0.699706 1.89998 1.63304 1.12498C2.34137 0.541649 3.19133 0.225003 4.09133 0.208336C5.07467 0.216669 6.05804 0.541671 6.79137 1.2C7.62471 1.93334 8.10803 2.95835 8.13303 4.07501C8.1497 4.80001 7.96635 5.51666 7.59968 6.14166C7.39968 6.5 7.12469 6.84168 6.82469 7.09168C6.15802 7.72501 5.24135 8.1 4.26635 8.125C4.22468 8.125 4.19135 8.125 4.15801 8.125ZM4.15801 1.45834C4.14135 1.45834 4.12468 1.45834 4.10801 1.45834C3.49968 1.46667 2.91633 1.69168 2.42467 2.09168C1.79133 2.61668 1.44135 3.40001 1.45802 4.22501C1.47469 4.72501 1.61636 5.20002 1.88303 5.59169C1.95803 5.70835 2.03301 5.81665 2.12468 5.91665C2.65801 6.54998 3.44969 6.88333 4.22469 6.86666C4.89136 6.84999 5.50801 6.60001 5.97467 6.15835C6.19134 5.97501 6.36634 5.75833 6.49968 5.51666C6.75801 5.075 6.88302 4.59165 6.87469 4.09999C6.85802 3.33332 6.52471 2.63333 5.95804 2.12499C5.45804 1.69999 4.82468 1.45834 4.15801 1.45834Z" fill="#12B76A"/>
<path d="M3.71002 5.62494C3.55169 5.62494 3.40167 5.56658 3.27667 5.44992L2.435 4.64995C2.185 4.40828 2.1767 4.01662 2.41836 3.76662C2.66003 3.51662 3.0517 3.50827 3.3017 3.74994L3.71002 4.14158L5.01836 2.87495C5.26836 2.63328 5.66003 2.64158 5.90169 2.89158C6.14336 3.14158 6.13501 3.53329 5.88501 3.77496L4.14332 5.45826C4.01832 5.56659 3.86002 5.62494 3.71002 5.62494Z" fill="#12B76A"/>
</svg>
