<svg width="35" height="35" viewBox="0 0 35 35" fill="none" xmlns="http://www.w3.org/2000/svg">
<path d="M17.4863 13.1045V4.83502" stroke="#141B34" stroke-width="1.5" stroke-linecap="round" stroke-linejoin="round"/>
<path d="M17.4863 30.1445V21.875" stroke="#141B34" stroke-width="1.5" stroke-linecap="round" stroke-linejoin="round"/>
<path d="M30.1442 17.5001L21.875 17.4244" stroke="#141B34" stroke-width="1.5" stroke-linecap="round" stroke-linejoin="round"/>
<path d="M13.1246 17.5001L4.85547 17.4244" stroke="#141B34" stroke-width="1.5" stroke-linecap="round" stroke-linejoin="round"/>
<path d="M21.8749 8.74997C21.8749 8.74997 18.6527 4.37501 17.4999 4.375C16.347 4.37499 13.125 8.75 13.125 8.75" stroke="#141B34" stroke-width="1.5" stroke-linecap="round" stroke-linejoin="round"/>
<path d="M8.74997 21.875C8.74997 21.875 4.37501 18.6528 4.375 17.5C4.37499 16.347 8.75 13.125 8.75 13.125" stroke="#141B34" stroke-width="1.5" stroke-linecap="round" stroke-linejoin="round"/>
<path d="M26.25 13.125C26.25 13.125 30.625 16.3472 30.625 17.5C30.625 18.653 26.25 21.875 26.25 21.875" stroke="#141B34" stroke-width="1.5" stroke-linecap="round" stroke-linejoin="round"/>
<path d="M13.125 26.25C13.125 26.25 16.3471 30.625 17.4999 30.625C18.6529 30.625 21.8749 26.25 21.8749 26.25" stroke="#141B34" stroke-width="1.5" stroke-linecap="round" stroke-linejoin="round"/>
</svg>
