<svg width="24" height="25" viewBox="0 0 24 25" fill="none" xmlns="http://www.w3.org/2000/svg">
<path d="M8.26872 8.99708C9.60954 8.17461 10.7798 8.50606 11.4828 9.03401C11.7711 9.25048 11.9152 9.35871 12 9.35871C12.0848 9.35871 12.2289 9.25048 12.5172 9.03401C13.2202 8.50606 14.3905 8.17461 15.7313 8.99708C17.491 10.0765 17.8891 13.6374 13.8302 16.6417C13.0571 17.2139 12.6706 17.5 12 17.5C11.3294 17.5 10.9429 17.2139 10.1698 16.6417C6.11086 13.6374 6.50903 10.0765 8.26872 8.99708Z" stroke="black" stroke-width="1.5" stroke-linecap="round"/>
<path d="M22 12.5C22 6.97715 17.5228 2.5 12 2.5C6.47715 2.5 2 6.97715 2 12.5C2 18.0228 6.47715 22.5 12 22.5C17.5228 22.5 22 18.0228 22 12.5Z" stroke="black" stroke-width="1.5"/>
</svg>
