<svg width="35" height="35" viewBox="0 0 35 35" fill="none" xmlns="http://www.w3.org/2000/svg">
<rect width="35" height="35" rx="5" fill="white"/>
<path fill-rule="evenodd" clip-rule="evenodd" d="M12.0325 7.0625C9.28763 7.0625 7.0625 9.28763 7.0625 12.0325V22.9724C7.0625 25.7172 9.28763 27.9423 12.0325 27.9423H22.9724C25.7172 27.9423 27.9423 25.7172 27.9423 22.9724V12.0325C27.9423 9.28763 25.7172 7.0625 22.9724 7.0625H12.0325ZM6.0625 12.0325C6.0625 8.73534 8.73534 6.0625 12.0325 6.0625H22.9724C26.2695 6.0625 28.9423 8.73534 28.9423 12.0325V22.9724C28.9423 26.2695 26.2695 28.9423 22.9724 28.9423H12.0325C8.73534 28.9423 6.0625 26.2695 6.0625 22.9724V12.0325ZM18.1186 13.6208C17.3122 13.5012 16.4886 13.639 15.7649 14.0145C15.0413 14.39 14.4545 14.9841 14.088 15.7123C13.7214 16.4405 13.5938 17.2657 13.7234 18.0706C13.8529 18.8755 14.2329 19.6191 14.8094 20.1956C15.3859 20.7721 16.1294 21.1521 16.9343 21.2816C17.7392 21.4111 18.5645 21.2835 19.2927 20.917C20.0209 20.5505 20.615 19.9637 20.9905 19.24C21.366 18.5164 21.5037 17.6928 21.3841 16.8863C21.2622 16.0637 20.8789 15.3022 20.2908 14.7141C19.7028 14.1261 18.9412 13.7428 18.1186 13.6208ZM15.3044 13.1268C16.2147 12.6545 17.2508 12.4812 18.2653 12.6316C19.3002 12.7851 20.2582 13.2673 20.9979 14.007C21.7377 14.7468 22.2199 15.7048 22.3733 16.7396C22.5238 17.7541 22.3505 18.7903 21.8781 19.7006C21.4058 20.6109 20.6584 21.3492 19.7423 21.8103C18.8262 22.2713 17.788 22.4318 16.7755 22.2689C15.7629 22.106 14.8275 21.6279 14.1023 20.9027C13.3771 20.1775 12.899 19.2421 12.7361 18.2295C12.5731 17.2169 12.7336 16.1788 13.1947 15.2627C13.6558 14.3466 14.394 13.5992 15.3044 13.1268ZM23.5192 10.9855C23.243 10.9855 23.0192 11.2093 23.0192 11.4855C23.0192 11.7616 23.243 11.9855 23.5192 11.9855H23.5302C23.8064 11.9855 24.0302 11.7616 24.0302 11.4855C24.0302 11.2093 23.8064 10.9855 23.5302 10.9855H23.5192Z" fill="black"/>
</svg>
