<svg width="35" height="35" viewBox="0 0 35 35" fill="none" xmlns="http://www.w3.org/2000/svg">
<rect width="35" height="35" rx="5" fill="white"/>
<path fill-rule="evenodd" clip-rule="evenodd" d="M7.0625 8.71208C7.0625 7.8093 7.8098 7.0625 8.75024 7.0625C9.69069 7.0625 10.438 7.8093 10.438 8.71208C10.438 9.61487 9.69069 10.3617 8.75024 10.3617C7.8098 10.3617 7.0625 9.61487 7.0625 8.71208ZM8.75024 6.0625C7.27417 6.0625 6.0625 7.2405 6.0625 8.71208C6.0625 10.1837 7.27417 11.3617 8.75024 11.3617C10.2263 11.3617 11.438 10.1837 11.438 8.71208C11.438 7.2405 10.2263 6.0625 8.75024 6.0625ZM21.875 13.5103C20.2641 13.5103 18.721 14.1391 17.5845 15.2557C16.4484 16.372 15.8118 17.8842 15.8118 19.459V26.4826H19.1873V19.459C19.1873 18.7534 19.4726 18.0786 19.9776 17.5824C20.4823 17.0865 21.165 16.8094 21.875 16.8094C22.585 16.8094 23.2677 17.0865 23.7724 17.5824C24.2774 18.0786 24.5628 18.7534 24.5628 19.459V26.4826H27.9382V19.459C27.9382 17.8842 27.3016 16.372 26.1655 15.2557C25.0291 14.1391 23.4859 13.5103 21.875 13.5103ZM21.875 12.5103C20.0045 12.5103 18.2089 13.2403 16.8837 14.5424C15.5581 15.8449 14.8118 17.6132 14.8118 19.459V26.9826C14.8118 27.2587 15.0356 27.4826 15.3118 27.4826H19.6873C19.9634 27.4826 20.1873 27.2587 20.1873 26.9826V19.459C20.1873 19.0244 20.3629 18.6058 20.6785 18.2957C20.9943 17.9853 21.4246 17.8094 21.875 17.8094C22.3254 17.8094 22.7557 17.9853 23.0716 18.2957C23.3871 18.6058 23.5628 19.0244 23.5628 19.459V26.9826C23.5628 27.2587 23.7866 27.4826 24.0628 27.4826H28.4382C28.7144 27.4826 28.9382 27.2587 28.9382 26.9826V19.459C28.9382 17.6132 28.1919 15.8449 26.8664 14.5424C25.5411 13.2403 23.7455 12.5103 21.875 12.5103ZM6.0625 14.085C6.0625 13.8089 6.28636 13.585 6.5625 13.585H10.938C11.2141 13.585 11.438 13.8089 11.438 14.085V26.9825C11.438 27.2587 11.2141 27.4825 10.938 27.4825H6.5625C6.28636 27.4825 6.0625 27.2587 6.0625 26.9825V14.085ZM7.0625 14.585V26.4825H10.438V14.585H7.0625Z" fill="black"/>
</svg>
