<svg width="30" height="30" viewBox="0 0 30 30" fill="none" xmlns="http://www.w3.org/2000/svg">
<path d="M3.1624 18.462C2.89659 20.2045 4.085 21.414 5.54006 22.0167C11.1185 24.3277 18.8815 24.3277 24.4599 22.0167C25.915 21.414 27.1034 20.2045 26.8376 18.462C26.6743 17.3911 25.8665 16.4994 25.268 15.6286C24.4841 14.4741 24.4063 13.2147 24.4061 11.875C24.4061 6.69733 20.1949 2.5 15 2.5C9.80516 2.5 5.59391 6.69733 5.59391 11.875C5.59379 13.2147 5.5159 14.4741 4.73201 15.6286C4.13355 16.4994 3.32576 17.3911 3.1624 18.462Z" stroke="black" stroke-width="1.875" stroke-linecap="round" stroke-linejoin="round"/>
<path d="M10 23.75C10.5731 25.9065 12.5944 27.5 15 27.5C17.4056 27.5 19.4269 25.9065 20 23.75" stroke="black" stroke-width="1.875" stroke-linecap="round" stroke-linejoin="round"/>
</svg>
