<svg width="17" height="17" viewBox="0 0 17 17" fill="none" xmlns="http://www.w3.org/2000/svg">
<path d="M7.79297 15.5833C7.21341 15.5833 6.65977 15.3494 5.55246 14.8817C2.79613 13.7174 1.41797 13.1352 1.41797 12.1559C1.41797 11.8817 1.41797 7.12902 1.41797 4.95833M7.79297 15.5833V8.04298M7.79297 15.5833C8.03409 15.5833 8.25076 15.5428 8.5013 15.4618M14.168 4.95833V8.14583" stroke="#667085" stroke-width="1.5" stroke-linecap="round" stroke-linejoin="round"/>
<path d="M5.1905 6.86473L3.12131 5.86348C1.98575 5.31399 1.41797 5.03925 1.41797 4.60417C1.41797 4.16909 1.98575 3.89435 3.12131 3.34486L5.1905 2.34361C6.46756 1.72565 7.1061 1.41667 7.79297 1.41667C8.47984 1.41667 9.1184 1.72565 10.3955 2.34361L12.4646 3.34486C13.6002 3.89435 14.168 4.16909 14.168 4.60417C14.168 5.03925 13.6002 5.31399 12.4646 5.86348L10.3955 6.86473C9.1184 7.4827 8.47984 7.79167 7.79297 7.79167C7.1061 7.79167 6.46756 7.4827 5.1905 6.86473Z" stroke="#667085" stroke-width="1.5" stroke-linecap="round" stroke-linejoin="round"/>
<path d="M3.54297 8.5L4.95964 9.20833" stroke="#667085" stroke-width="1.5" stroke-linecap="round" stroke-linejoin="round"/>
<path d="M11.3333 2.83333L4.25 6.375" stroke="#667085" stroke-width="1.5" stroke-linecap="round" stroke-linejoin="round"/>
<path d="M14.2616 14.2792L15.5846 15.5833M15.0232 12.4641C15.0232 13.871 13.8804 15.0116 12.4706 15.0116C11.0608 15.0116 9.91797 13.871 9.91797 12.4641C9.91797 11.0572 11.0608 9.91667 12.4706 9.91667C13.8804 9.91667 15.0232 11.0572 15.0232 12.4641Z" stroke="#667085" stroke-width="1.5" stroke-linecap="round"/>
</svg>
