<svg width="38" height="38" viewBox="0 0 38 38" fill="none" xmlns="http://www.w3.org/2000/svg">
<path d="M32.2884 12.7168L29.5224 10.3148C27.5296 8.5841 26.7484 7.65308 25.6692 7.98221C24.3235 8.39261 24.7665 10.9821 24.7665 11.8564C22.6743 11.8564 20.4991 11.6955 18.4368 12.0307C11.6288 13.1376 9.5 17.9813 9.5 23.1998C11.4269 22.0186 13.3518 20.7015 15.6677 20.1541C18.5586 19.4707 21.7871 19.7967 24.7665 19.7967C24.7665 20.6711 24.3235 23.2606 25.6692 23.671C26.892 24.0439 27.5296 23.069 29.5224 21.3384L32.2884 18.9364C33.985 17.4631 34.8333 16.7263 34.8333 15.8266C34.8333 14.9269 33.985 14.1902 32.2884 12.7168Z" stroke="#141B34" stroke-width="1.5" stroke-linecap="round" stroke-linejoin="round"/>
<path d="M16.7314 4.75C10.6193 4.76099 7.41875 4.91074 5.37336 6.95199C3.16602 9.15486 3.16602 12.7003 3.16602 19.7912C3.16602 26.8821 3.16602 30.4275 5.37334 32.6304C7.58068 34.8333 11.1333 34.8333 18.2386 34.8333C25.3439 34.8333 28.8966 34.8333 31.1039 32.6304C32.6407 31.0967 33.1075 28.9121 33.2493 25.3333" stroke="#141B34" stroke-width="1.5" stroke-linecap="round" stroke-linejoin="round"/>
</svg>
