<svg width="24" height="25" viewBox="0 0 24 25" fill="none" xmlns="http://www.w3.org/2000/svg">
<path d="M4.34085 17.3781L3.17786 10.4356C2.98869 9.3063 2.89411 8.74167 3.18537 8.37083C3.47662 8 4.01468 8 5.09079 8H18.9092C19.9853 8 20.5234 8 20.8146 8.37083C21.1059 8.74167 21.0113 9.3063 20.8221 10.4356L19.6591 17.3781C19.249 19.8264 19.044 21.0505 18.2319 21.7752C17.4199 22.5 16.2534 22.5 13.9204 22.5H10.0796C7.74664 22.5 6.58014 22.5 5.76809 21.7752C4.95603 21.0505 4.75097 19.8264 4.34085 17.3781Z" stroke="#141B34" stroke-width="1.5"/>
<path d="M7 8V7.5C7 4.73858 9.23858 2.5 12 2.5C14.7614 2.5 17 4.73858 17 7.5V8" stroke="#141B34" stroke-width="1.5"/>
<path d="M4.5 18H19.5" stroke="#141B34" stroke-width="1.5"/>
</svg>
