<svg width="30" height="30" viewBox="0 0 30 30" fill="none" xmlns="http://www.w3.org/2000/svg">
<path d="M2.5 5.625H10.9467C11.9413 5.625 12.8951 6.02009 13.5984 6.72335L17.5 10.625" stroke="#141B34" stroke-width="1.5" stroke-linecap="round" stroke-linejoin="round"/>
<path d="M6.25 16.875H2.5" stroke="#141B34" stroke-width="1.5" stroke-linecap="round" stroke-linejoin="round"/>
<path d="M10.625 9.375L13.125 11.875C13.8154 12.5654 13.8154 13.6846 13.125 14.375C12.4346 15.0654 11.3154 15.0654 10.625 14.375L8.75 12.5C7.67414 13.5759 5.97089 13.6969 4.75367 12.784L4.375 12.5" stroke="#141B34" stroke-width="1.5" stroke-linecap="round" stroke-linejoin="round"/>
<path d="M6.25 13.75V19.375C6.25 21.732 6.25 22.9105 6.98224 23.6427C7.71446 24.375 8.89298 24.375 11.25 24.375H22.5C24.857 24.375 26.0355 24.375 26.7677 23.6427C27.5 22.9105 27.5 21.732 27.5 19.375V15.625C27.5 13.268 27.5 12.0895 26.7677 11.3572C26.0355 10.625 24.857 10.625 22.5 10.625H11.875" stroke="#141B34" stroke-width="1.5" stroke-linecap="round" stroke-linejoin="round"/>
<path d="M19.0625 17.5C19.0625 18.7081 18.0831 19.6875 16.875 19.6875C15.6669 19.6875 14.6875 18.7081 14.6875 17.5C14.6875 16.2919 15.6669 15.3125 16.875 15.3125C18.0831 15.3125 19.0625 16.2919 19.0625 17.5Z" stroke="#141B34" stroke-width="1.5" stroke-linecap="round" stroke-linejoin="round"/>
</svg>
