<svg width="30" height="30" viewBox="0 0 30 30" fill="none" xmlns="http://www.w3.org/2000/svg">
<path d="M25.2475 3.125H4.7525C3.81434 3.125 3.34525 3.125 3.02047 3.34657C2.8596 3.45631 2.72667 3.60136 2.63209 3.77034C2.44113 4.11151 2.4878 4.57241 2.58117 5.49421C2.73698 7.0328 2.81488 7.8021 3.22279 8.3521C3.42605 8.62619 3.68377 8.85649 3.98018 9.02894C4.57499 9.375 5.35794 9.375 6.92385 9.375H23.0761C24.642 9.375 25.425 9.375 26.0199 9.02894C26.3163 8.85649 26.574 8.62619 26.7773 8.3521C27.1851 7.8021 27.263 7.0328 27.4189 5.49421C27.5123 4.57241 27.5589 4.11151 27.3679 3.77034C27.2734 3.60136 27.1404 3.45631 26.9795 3.34657C26.6548 3.125 26.1856 3.125 25.2475 3.125Z" stroke="#141B34" stroke-width="1.5" stroke-linecap="round" stroke-linejoin="round"/>
<path d="M3.75 9.375V15.676C3.75 20.366 3.75 22.711 5.21446 24.168C6.67894 25.625 9.03595 25.625 13.75 25.625H15.625M26.25 11.25V9.375" stroke="#141B34" stroke-width="1.5" stroke-linecap="round" stroke-linejoin="round"/>
<path d="M22.5 14.375C19.7386 14.375 17.5 16.6361 17.5 19.4254C17.5 21.0204 18.125 22.2604 19.375 23.3681C20.2561 24.1489 21.3235 25.4458 21.9642 26.4969C22.2716 27.001 22.7063 27.001 23.0358 26.4969C23.709 25.4666 24.7439 24.1489 25.625 23.3681C26.875 22.2604 27.5 21.0204 27.5 19.4254C27.5 16.6361 25.2614 14.375 22.5 14.375Z" stroke="#141B34" stroke-width="1.5" stroke-linejoin="round"/>
<path d="M22.5 19.375H22.5113" stroke="#141B34" stroke-width="2" stroke-linecap="round" stroke-linejoin="round"/>
<path d="M12.5 13.125H15" stroke="#141B34" stroke-width="1.5" stroke-linecap="round"/>
</svg>
