<svg width="30" height="30" viewBox="0 0 30 30" fill="none" xmlns="http://www.w3.org/2000/svg">
<path d="M15 27.5C13.9773 27.5 13.0003 27.0942 11.0462 26.2827C6.18205 24.2626 3.75 23.2526 3.75 21.5536V9.68079M15 27.5C16.0227 27.5 16.9998 27.0942 18.9539 26.2827C23.818 24.2626 26.25 23.2526 26.25 21.5536V9.68079M15 27.5V15.2109M3.75 9.68079C3.75 10.4356 4.75196 10.9123 6.7559 11.8656L10.4074 13.6028C12.661 14.6749 13.7879 15.2109 15 15.2109M3.75 9.68079C3.75 8.92595 4.75196 8.4493 6.7559 7.49597L9.375 6.25M26.25 9.68079C26.25 10.4356 25.248 10.9123 23.2441 11.8656L19.5926 13.6028C17.339 14.6749 16.2121 15.2109 15 15.2109M26.25 9.68079C26.25 8.92595 25.248 8.4493 23.2441 7.49597L20.625 6.25M7.5 16.4398L10 17.6688" stroke="#141B34" stroke-width="1.5" stroke-linecap="round" stroke-linejoin="round"/>
<path d="M15.0046 2.5V11.2499M15.0046 11.2499C15.3335 11.2544 15.6579 11.0246 15.8973 10.7442L17.5 8.82717M15.0046 11.2499C14.6874 11.2457 14.3661 11.0171 14.1121 10.7442L12.5 8.82717" stroke="#141B34" stroke-width="1.5" stroke-linecap="round"/>
</svg>
