<svg width="17" height="17" viewBox="0 0 17 17" fill="none" xmlns="http://www.w3.org/2000/svg">
<path d="M12.0417 14.1667C12.8241 14.1667 13.4583 13.5324 13.4583 12.75C13.4583 11.9676 12.8241 11.3333 12.0417 11.3333C11.2592 11.3333 10.625 11.9676 10.625 12.75C10.625 13.5324 11.2592 14.1667 12.0417 14.1667Z" stroke="#667085" stroke-width="1.0625"/>
<path d="M4.95964 14.1667C5.74204 14.1667 6.3763 13.5324 6.3763 12.75C6.3763 11.9676 5.74204 11.3333 4.95964 11.3333C4.17723 11.3333 3.54297 11.9676 3.54297 12.75C3.54297 13.5324 4.17723 14.1667 4.95964 14.1667Z" stroke="#667085" stroke-width="1.0625"/>
<path d="M13.4596 7.79166H15.5846V9.20833C15.5846 10.8779 15.5846 11.7126 15.066 12.2314C14.7211 12.5762 14.2365 12.6918 13.4596 12.7304M3.54297 12.7304C2.76613 12.6918 2.2815 12.5762 1.93663 12.2314C1.41797 11.7126 1.41797 10.8779 1.41797 9.20833V6.375C1.41797 4.70544 1.41797 3.87066 1.93663 3.35199C2.4553 2.83333 3.29008 2.83333 4.95964 2.83333H7.29714C8.0882 2.83333 8.48374 2.83333 8.80383 2.93733C9.45075 3.14753 9.95792 3.65474 10.1682 4.30167C10.2721 4.62176 10.2721 5.01728 10.2721 5.80833C10.2721 6.67305 10.2721 7.10543 10.0353 7.39783C9.98866 7.45549 9.93596 7.50819 9.8783 7.55487C9.5859 7.79166 9.15354 7.79166 8.2888 7.79166H5.66797M10.6263 12.75H6.3763" stroke="#667085" stroke-width="1.0625" stroke-linecap="round" stroke-linejoin="round"/>
<path d="M10.2695 4.25H11.5595C12.5905 4.25 13.1058 4.25 13.5253 4.50054C13.9448 4.75109 14.1892 5.20491 14.6779 6.11256L15.582 7.79167" stroke="#667085" stroke-width="1.0625" stroke-linecap="round" stroke-linejoin="round"/>
<path d="M7.08464 9.20833C7.08464 9.20833 6.60856 8.81422 6.19022 8.44057C5.89446 8.20271 5.66797 7.99892 5.66797 7.79507C5.66797 7.61444 5.84469 7.44657 6.13249 7.18356C6.54055 6.84382 7.08464 6.375 7.08464 6.375" stroke="#667085" stroke-width="1.0625" stroke-linecap="round" stroke-linejoin="round"/>
</svg>
