<svg width="30" height="30" viewBox="0 0 30 30" fill="none" xmlns="http://www.w3.org/2000/svg">
<path d="M15 27.5C21.9036 27.5 27.5 21.9036 27.5 15C27.5 8.09644 21.9036 2.5 15 2.5C8.09644 2.5 2.5 8.09644 2.5 15C2.5 21.9036 8.09644 27.5 15 27.5Z" stroke="black" stroke-width="1.875"/>
<path d="M9.375 21.25C12.2896 18.1973 17.679 18.0535 20.625 21.25M18.1189 11.875C18.1189 13.6009 16.7177 15 14.9894 15C13.2611 15 11.86 13.6009 11.86 11.875C11.86 10.1491 13.2611 8.75 14.9894 8.75C16.7177 8.75 18.1189 10.1491 18.1189 11.875Z" stroke="black" stroke-width="1.875" stroke-linecap="round"/>
</svg>
